<mxfile host="app.diagrams.net" agent="Mozilla/5.0 (Windows NT 10.0; Win64; x64) AppleWebKit/537.36 (KHTML, like Gecko) Chrome/134.0.0.0 Safari/537.36" version="26.0.11">
  <diagram name="Página-1" id="A-L_utw7WO5ciO9K1gqy">
    <mxGraphModel dx="1050" dy="522" grid="1" gridSize="10" guides="1" tooltips="1" connect="1" arrows="1" fold="1" page="1" pageScale="1" pageWidth="827" pageHeight="1169" math="0" shadow="0">
      <root>
        <mxCell id="0" />
        <mxCell id="1" parent="0" />
        <mxCell id="RHHE2A4noCH6Pb7DhqH2-28" style="edgeStyle=orthogonalEdgeStyle;rounded=0;orthogonalLoop=1;jettySize=auto;html=1;" edge="1" parent="1" source="RHHE2A4noCH6Pb7DhqH2-2" target="RHHE2A4noCH6Pb7DhqH2-12">
          <mxGeometry relative="1" as="geometry" />
        </mxCell>
        <mxCell id="RHHE2A4noCH6Pb7DhqH2-29" value="se conecta" style="edgeLabel;html=1;align=center;verticalAlign=middle;resizable=0;points=[];" vertex="1" connectable="0" parent="RHHE2A4noCH6Pb7DhqH2-28">
          <mxGeometry x="-0.36" y="-2" relative="1" as="geometry">
            <mxPoint x="32" y="11" as="offset" />
          </mxGeometry>
        </mxCell>
        <mxCell id="RHHE2A4noCH6Pb7DhqH2-2" value="" style="verticalAlign=top;align=left;spacingTop=8;spacingLeft=2;spacingRight=12;shape=cube;size=10;direction=south;fontStyle=4;html=1;whiteSpace=wrap;fillColor=#e1d5e7;strokeColor=#000000;" vertex="1" parent="1">
          <mxGeometry x="140" y="112" width="200" height="130" as="geometry" />
        </mxCell>
        <mxCell id="RHHE2A4noCH6Pb7DhqH2-3" value="&lt;div&gt;&amp;lt;&amp;lt;device&amp;gt;&amp;gt;&lt;/div&gt;Web Server" style="text;align=center;fontStyle=1;verticalAlign=middle;spacingLeft=3;spacingRight=3;strokeColor=none;rotatable=0;points=[[0,0.5],[1,0.5]];portConstraint=eastwest;html=1;" vertex="1" parent="1">
          <mxGeometry x="160" y="132" width="150" height="26" as="geometry" />
        </mxCell>
        <mxCell id="RHHE2A4noCH6Pb7DhqH2-4" value="&lt;b&gt;&amp;nbsp; &amp;nbsp;&amp;nbsp;&amp;nbsp; &amp;nbsp; Web Site&lt;/b&gt;" style="html=1;dropTarget=0;whiteSpace=wrap;fillColor=#d5e8d4;strokeColor=#000000;align=left;" vertex="1" parent="1">
          <mxGeometry x="170" y="172" width="130" height="40" as="geometry" />
        </mxCell>
        <mxCell id="RHHE2A4noCH6Pb7DhqH2-5" value="" style="shape=module;jettyWidth=8;jettyHeight=4;" vertex="1" parent="RHHE2A4noCH6Pb7DhqH2-4">
          <mxGeometry x="1" width="20" height="20" relative="1" as="geometry">
            <mxPoint x="-27" y="7" as="offset" />
          </mxGeometry>
        </mxCell>
        <mxCell id="RHHE2A4noCH6Pb7DhqH2-30" style="edgeStyle=orthogonalEdgeStyle;rounded=0;orthogonalLoop=1;jettySize=auto;html=1;" edge="1" parent="1" source="RHHE2A4noCH6Pb7DhqH2-12" target="RHHE2A4noCH6Pb7DhqH2-22">
          <mxGeometry relative="1" as="geometry">
            <Array as="points">
              <mxPoint x="440" y="465" />
              <mxPoint x="440" y="335" />
            </Array>
          </mxGeometry>
        </mxCell>
        <mxCell id="RHHE2A4noCH6Pb7DhqH2-31" style="edgeStyle=orthogonalEdgeStyle;rounded=0;orthogonalLoop=1;jettySize=auto;html=1;" edge="1" parent="1" source="RHHE2A4noCH6Pb7DhqH2-12" target="RHHE2A4noCH6Pb7DhqH2-18">
          <mxGeometry relative="1" as="geometry">
            <Array as="points">
              <mxPoint x="440" y="465" />
              <mxPoint x="440" y="545" />
            </Array>
          </mxGeometry>
        </mxCell>
        <mxCell id="RHHE2A4noCH6Pb7DhqH2-12" value="" style="verticalAlign=top;align=left;spacingTop=8;spacingLeft=2;spacingRight=12;shape=cube;size=10;direction=south;fontStyle=4;html=1;whiteSpace=wrap;fillColor=#e1d5e7;strokeColor=light-dark(#000000, #9577a3);" vertex="1" parent="1">
          <mxGeometry x="95" y="340" width="290" height="250" as="geometry" />
        </mxCell>
        <mxCell id="RHHE2A4noCH6Pb7DhqH2-6" value="" style="verticalAlign=top;align=left;spacingTop=8;spacingLeft=2;spacingRight=12;shape=cube;size=10;direction=south;fontStyle=4;html=1;whiteSpace=wrap;fillColor=light-dark(#d6b9e4, #392f3f);strokeColor=light-dark(#000000, #9577a3);" vertex="1" parent="1">
          <mxGeometry x="125" y="390" width="220" height="170" as="geometry" />
        </mxCell>
        <mxCell id="RHHE2A4noCH6Pb7DhqH2-7" value="Docker" style="text;align=center;fontStyle=1;verticalAlign=middle;spacingLeft=3;spacingRight=3;strokeColor=none;rotatable=0;points=[[0,0.5],[1,0.5]];portConstraint=eastwest;html=1;" vertex="1" parent="1">
          <mxGeometry x="130" y="400" width="200" height="40" as="geometry" />
        </mxCell>
        <mxCell id="RHHE2A4noCH6Pb7DhqH2-13" value="&lt;div&gt;&lt;span style=&quot;background-color: transparent; color: light-dark(rgb(0, 0, 0), rgb(255, 255, 255));&quot;&gt;Microsoft Azure&lt;/span&gt;&lt;/div&gt;" style="text;align=center;fontStyle=1;verticalAlign=middle;spacingLeft=3;spacingRight=3;strokeColor=none;rotatable=0;points=[[0,0.5],[1,0.5]];portConstraint=eastwest;html=1;" vertex="1" parent="1">
          <mxGeometry x="100" y="350" width="270" height="40" as="geometry" />
        </mxCell>
        <mxCell id="RHHE2A4noCH6Pb7DhqH2-18" value="" style="verticalAlign=top;align=left;spacingTop=8;spacingLeft=2;spacingRight=12;shape=cube;size=10;direction=south;fontStyle=4;html=1;whiteSpace=wrap;fillColor=#e1d5e7;strokeColor=#000000;" vertex="1" parent="1">
          <mxGeometry x="550" y="480" width="200" height="130" as="geometry" />
        </mxCell>
        <mxCell id="RHHE2A4noCH6Pb7DhqH2-19" value="&lt;div&gt;&lt;span style=&quot;background-color: transparent; color: light-dark(rgb(0, 0, 0), rgb(255, 255, 255));&quot;&gt;External Server&lt;/span&gt;&lt;/div&gt;" style="text;align=center;fontStyle=1;verticalAlign=middle;spacingLeft=3;spacingRight=3;strokeColor=none;rotatable=0;points=[[0,0.5],[1,0.5]];portConstraint=eastwest;html=1;" vertex="1" parent="1">
          <mxGeometry x="570" y="500" width="150" height="30" as="geometry" />
        </mxCell>
        <mxCell id="RHHE2A4noCH6Pb7DhqH2-20" value="&lt;b style=&quot;background-color: transparent; color: light-dark(rgb(0, 0, 0), rgb(255, 255, 255));&quot;&gt;&amp;nbsp; &amp;nbsp; &amp;nbsp; &amp;nbsp;&lt;/b&gt;&lt;b&gt;LLM Site&lt;/b&gt;" style="html=1;dropTarget=0;whiteSpace=wrap;fillColor=#d5e8d4;strokeColor=#000000;align=left;" vertex="1" parent="1">
          <mxGeometry x="580" y="540" width="130" height="40" as="geometry" />
        </mxCell>
        <mxCell id="RHHE2A4noCH6Pb7DhqH2-21" value="" style="shape=module;jettyWidth=8;jettyHeight=4;" vertex="1" parent="RHHE2A4noCH6Pb7DhqH2-20">
          <mxGeometry x="1" width="20" height="20" relative="1" as="geometry">
            <mxPoint x="-27" y="7" as="offset" />
          </mxGeometry>
        </mxCell>
        <mxCell id="RHHE2A4noCH6Pb7DhqH2-22" value="" style="verticalAlign=top;align=left;spacingTop=8;spacingLeft=2;spacingRight=12;shape=cube;size=10;direction=south;fontStyle=4;html=1;whiteSpace=wrap;fillColor=#e1d5e7;strokeColor=#000000;" vertex="1" parent="1">
          <mxGeometry x="550" y="270" width="200" height="130" as="geometry" />
        </mxCell>
        <mxCell id="RHHE2A4noCH6Pb7DhqH2-23" value="&lt;div&gt;&lt;span style=&quot;background-color: transparent; color: light-dark(rgb(0, 0, 0), rgb(255, 255, 255));&quot;&gt;External Server&lt;/span&gt;&lt;/div&gt;" style="text;align=center;fontStyle=1;verticalAlign=middle;spacingLeft=3;spacingRight=3;strokeColor=none;rotatable=0;points=[[0,0.5],[1,0.5]];portConstraint=eastwest;html=1;" vertex="1" parent="1">
          <mxGeometry x="570" y="290" width="150" height="30" as="geometry" />
        </mxCell>
        <mxCell id="RHHE2A4noCH6Pb7DhqH2-24" value="&lt;b&gt;&amp;nbsp; &amp;nbsp; Wikidata Site&lt;/b&gt;" style="html=1;dropTarget=0;whiteSpace=wrap;fillColor=#d5e8d4;strokeColor=#000000;align=left;" vertex="1" parent="1">
          <mxGeometry x="580" y="330" width="130" height="40" as="geometry" />
        </mxCell>
        <mxCell id="RHHE2A4noCH6Pb7DhqH2-25" value="" style="shape=module;jettyWidth=8;jettyHeight=4;" vertex="1" parent="RHHE2A4noCH6Pb7DhqH2-24">
          <mxGeometry x="1" width="20" height="20" relative="1" as="geometry">
            <mxPoint x="-27" y="7" as="offset" />
          </mxGeometry>
        </mxCell>
        <mxCell id="RHHE2A4noCH6Pb7DhqH2-8" value="&lt;div&gt;&lt;b&gt;Microservices&lt;/b&gt;&lt;/div&gt;" style="html=1;dropTarget=0;whiteSpace=wrap;fillColor=#d5e8d4;strokeColor=#000000;align=center;" vertex="1" parent="1">
          <mxGeometry x="150" y="440" width="160" height="40" as="geometry" />
        </mxCell>
        <mxCell id="RHHE2A4noCH6Pb7DhqH2-9" value="" style="shape=module;jettyWidth=8;jettyHeight=4;" vertex="1" parent="RHHE2A4noCH6Pb7DhqH2-8">
          <mxGeometry x="1" width="20" height="20" relative="1" as="geometry">
            <mxPoint x="-27" y="7" as="offset" />
          </mxGeometry>
        </mxCell>
        <mxCell id="RHHE2A4noCH6Pb7DhqH2-32" value="solicita información" style="text;html=1;align=center;verticalAlign=middle;resizable=0;points=[];autosize=1;strokeColor=none;fillColor=none;" vertex="1" parent="1">
          <mxGeometry x="414" y="310" width="130" height="30" as="geometry" />
        </mxCell>
        <mxCell id="RHHE2A4noCH6Pb7DhqH2-35" value="solicita pistas" style="text;html=1;align=center;verticalAlign=middle;resizable=0;points=[];autosize=1;strokeColor=none;fillColor=none;" vertex="1" parent="1">
          <mxGeometry x="440" y="540" width="90" height="30" as="geometry" />
        </mxCell>
        <mxCell id="RHHE2A4noCH6Pb7DhqH2-38" value="&lt;div&gt;&lt;b&gt;Database&lt;/b&gt;&lt;/div&gt;" style="html=1;dropTarget=0;whiteSpace=wrap;fillColor=#d5e8d4;strokeColor=#000000;align=center;" vertex="1" parent="1">
          <mxGeometry x="150" y="500" width="160" height="40" as="geometry" />
        </mxCell>
        <mxCell id="RHHE2A4noCH6Pb7DhqH2-39" value="" style="shape=module;jettyWidth=8;jettyHeight=4;" vertex="1" parent="RHHE2A4noCH6Pb7DhqH2-38">
          <mxGeometry x="1" width="20" height="20" relative="1" as="geometry">
            <mxPoint x="-27" y="7" as="offset" />
          </mxGeometry>
        </mxCell>
        <mxCell id="RHHE2A4noCH6Pb7DhqH2-40" value="" style="verticalAlign=top;align=left;spacingTop=8;spacingLeft=2;spacingRight=12;shape=cube;size=10;direction=south;fontStyle=4;html=1;whiteSpace=wrap;fillColor=#e1d5e7;strokeColor=light-dark(#000000, #9577a3);" vertex="1" parent="1">
          <mxGeometry x="454" y="142" width="106" height="60" as="geometry" />
        </mxCell>
        <mxCell id="RHHE2A4noCH6Pb7DhqH2-42" style="edgeStyle=orthogonalEdgeStyle;rounded=0;orthogonalLoop=1;jettySize=auto;html=1;" edge="1" parent="1" source="RHHE2A4noCH6Pb7DhqH2-41" target="RHHE2A4noCH6Pb7DhqH2-2">
          <mxGeometry relative="1" as="geometry" />
        </mxCell>
        <mxCell id="RHHE2A4noCH6Pb7DhqH2-41" value="User Device" style="text;align=center;fontStyle=1;verticalAlign=middle;spacingLeft=3;spacingRight=3;strokeColor=none;rotatable=0;points=[[0,0.5],[1,0.5]];portConstraint=eastwest;html=1;" vertex="1" parent="1">
          <mxGeometry x="450" y="152" width="100" height="50" as="geometry" />
        </mxCell>
      </root>
    </mxGraphModel>
  </diagram>
</mxfile>
